PathFileType	4	(X/Y/Z)	C:\Users\WrightLab\Desktop\Jo\P5V111.trc
DataRate	CameraRate	NumFrames	NumMarkers	Units	OrigDataRate	OrigDataStartFrame	OrigNumFrames
100.00	100.00	      10	19	mm	100.00	292	      1166
Frame#	Time	Headset_Front			Headset_Back			Headset_Left			Headset_Right			Left_Shoulder			Right_Shoulder			Sternum			C7			Left Elbow			Right Elbow			Left Wrist			Right Wrist			Left ASIS			Right ASIS			S2			Left Knee			Right Knee			Left Ankle			Right Ankle			
		X1	Y1	Z1	X2	Y2	Z2	X3	Y3	Z3	X4	Y4	Z4	X5	Y5	Z5	X6	Y6	Z6	X7	Y7	Z7	X8	Y8	Z8	X9	Y9	Z9	X10	Y10	Z10	X11	Y11	Z11	X12	Y12	Z12	X13	Y13	Z13	X14	Y14	Z14	X15	Y15	Z15	X16	Y16	Z16	X17	Y17	Z17	X18	Y18	Z18	X19	Y19	Z19	

292	2.910	-557.87335	1553.29248	1098.42566	-673.58160	1453.39099	1106.98999							-495.36429	1444.35437	1013.63098	-833.12433	1563.31604	978.25269	-666.46094	1327.39160	908.54584	-588.90308	1739.51965	957.44476	-757.19165	1543.51782	738.08258	-577.21198	1275.39392	1286.35364	-653.83698	1227.04932	648.45599	-334.55524	1183.33154	1308.79517	-747.13354	963.86731	753.05072	-677.91498	947.22961	1023.38348	-974.33539	1041.02405	899.77631	-834.63947	512.82562	743.02917	-674.76251	533.48450	1025.29858	-939.86359	107.71558	839.17419	-707.34332	121.71680	1031.46191	
293	2.920	-555.20917	1552.85767	1099.77869	-673.43610	1454.48767	1110.89746							-493.06607	1443.10706	1015.46436	-830.48059	1563.20764	978.98462	-663.49591	1327.65723	909.98645	-585.92938	1739.14465	958.84918	-754.30084	1543.81323	738.94965	-576.86932	1275.24792	1287.90576	-650.48535	1227.75586	650.20581	-334.24313	1182.76880	1311.88672	-744.25177	964.07947	753.46423	-675.45630	947.15802	1023.10675	-972.46490	1042.09143	899.98352	-832.17010	513.01630	741.67572	-673.83673	532.96820	1026.64465	-939.71429	107.95466	839.12274	-707.00696	121.31435	1032.23499	
294	2.930	-553.19336	1552.74036	1101.29688	-852.23071	1300.67200	634.79059							-491.74579	1442.77576	1017.41309	-828.58783	1563.49255	979.98621	-661.03448	1328.05652	911.81549	-583.41052	1738.95142	960.39777				-576.44849	1274.64795	1289.50037	-647.60004	1228.98389	649.90405	-334.06696	1181.85815	1313.75073	-741.39227	964.60461	752.98138	-673.15485	947.07660	1022.18781	-968.89575	1041.96033	899.77246	-829.66852	513.60327	741.11102	-672.54785	532.18451	1028.36438	-939.55402	108.18936	839.03925	-706.61078	121.81186	1033.19556	
295	2.940	-551.87860	1552.89990	1103.11841	-668.41980	1454.29541	1110.77026							-489.61176	1442.52136	1017.92896	-825.90839	1563.39990	980.66486	-658.76880	1328.08118	911.21765	-580.59308	1738.84460	961.89197	-748.57831	1545.11975	741.19403	-575.98865	1273.92676	1291.05823	-644.46027	1229.87317	650.90540	-333.85965	1180.09778	1315.60864	-739.05554	965.28424	752.56329	-671.02411	947.31012	1022.30359	-966.79999	1042.71753	899.92365	-826.76239	512.70496	741.02051	-671.74683	531.64227	1029.27319	-939.31439	108.43764	838.90808	-706.44800	122.03918	1033.58044	
296	2.950	-549.39575	1552.45996	1104.52576	-668.28387	1453.96191	1114.87439							-487.24335	1442.48059	1020.02594	-823.99585	1563.63257	981.53088	-655.98950	1328.42200	912.84290	-578.45135	1738.84570	963.59027				-575.15698	1273.31738	1292.55066	-640.90863	1230.98108	652.80109	-333.22540	1179.59521	1318.33582	-736.12323	966.09723	751.73816	-668.11243	947.85229	1021.59088	-963.02588	1042.31152	899.66199	-823.80347	513.13055	739.50006	-670.34875	530.44727	1031.03418	-939.13763	108.61855	838.72168	-706.26379	122.06642	1033.04993	
297	2.960	-547.29883	1552.38660	1105.99792	-843.05463	1302.71472	636.76062							-486.11737	1442.82227	1019.39185	-821.63348	1563.59534	982.31360	-653.53027	1328.89734	914.50305	-575.62988	1738.65637	965.10175	-742.79596	1546.29980	743.15839	-574.46674	1273.02551	1293.93701	-638.30414	1231.42090	653.21167	-333.22305	1178.55493	1319.33105	-733.63733	966.76886	751.87012	-666.88977	948.13184	1021.44446	-960.90350	1043.03064	899.89337	-821.09613	513.36145	739.10223	-670.51746	530.39392	1032.24011	-938.95398	108.97298	838.65424	-706.24005	122.11829	1033.09802	
298	2.970	-545.70544	1552.18542	1107.78455	-840.18158	1303.34546	637.39984							-483.59573	1442.65662	1023.07642	-819.53882	1563.62048	983.12531	-651.04675	1328.75012	913.86133	-573.49176	1738.58728	966.82404	-740.04877	1546.62573	744.18060	-573.91010	1272.26550	1295.57349	-635.45966	1232.12451	653.93903	-332.77798	1177.56348	1321.59521	-731.47174	967.15466	751.96954	-662.35889	949.33673	1021.52686	-957.55688	1042.85571	899.65979	-818.02490	513.57843	738.94214	-669.55396	529.70966	1033.02942	-938.60681	109.36300	838.45245	-706.29248	122.04733	1032.97302	
299	2.980	-544.11493	1552.47839	1109.34143	-663.55872	1455.06592	1118.76526							-481.28052	1443.00964	1024.85938	-817.70477	1563.76318	983.97192	-648.64777	1329.07959	916.64050	-571.60651	1738.98950	968.44867				-573.22650	1271.56140	1297.02332	-632.07202	1233.03516	655.43005	-332.46109	1176.63257	1322.98682	-728.57397	967.19171	751.70038	-660.16809	949.12085	1022.05353	-955.06519	1043.19666	899.72437	-814.54230	513.65735	737.95813	-667.26764	529.54041	1033.70618	-938.25702	109.74684	838.23364	-706.31305	122.02538	1032.92163	
300	2.990	-542.05334	1551.98071	1111.00732	-834.23303	1303.92395	638.51080							-480.21439	1442.71777	1024.05298	-815.34247	1563.63782	984.69696	-645.95984	1329.42175	917.08911	-568.92316	1738.86462	969.92810				-573.16339	1271.41113	1298.67896	-629.07507	1233.56934	655.91107	-332.14539	1175.97009	1324.38745	-725.54126	967.95850	751.97266	-657.42151	948.90668	1022.28448	-952.34955	1043.46655	899.65900	-812.06018	513.91113	737.30194	-666.17688	528.81952	1033.30042	-937.89716	110.12619	837.95221	-706.36261	121.97202	1032.79749	
301	3.000	-540.30634	1552.01990	1112.59253	-831.44275	1304.37292	639.18445							-478.12900	1443.10754	1025.98694	-813.64111	1563.69128	985.68640	-644.04785	1329.42139	918.20374	-567.10858	1738.65979	971.66772				-572.04205	1270.18201	1299.66931	-625.97504	1234.18567	658.80725	-331.75946	1175.05713	1325.77832	-722.28662	967.94690	751.62610	-654.00519	949.30304	1022.41235	-949.44586	1043.41284	899.55029	-808.23749	513.73065	736.58282	-664.96423	528.31311	1033.25488	-937.43396	110.55745	837.60748	-706.39716	121.92357	1032.71594	
